<svg width="1207" height="546" viewBox="0 0 1207 546" fill="none" xmlns="http://www.w3.org/2000/svg">
<path d="M1170.96 234.977L1168.7 263.221L1194.86 274.102L1167.3 280.677L1165.04 308.922L1150.27 284.741L1122.7 291.316L1141.14 269.796L1126.37 245.615L1152.53 256.496L1170.96 234.977Z" fill="url(#paint0_linear_203_162)"/>
<path d="M65.9629 269.977L63.699 298.221L89.8616 309.102L62.2999 315.677L60.036 343.922L45.2658 319.741L17.704 326.316L36.1373 304.796L21.367 280.615L47.5296 291.496L65.9629 269.977Z" fill="url(#paint1_linear_203_162)"/>
<path d="M214.963 458.977L212.699 487.221L238.862 498.102L211.3 504.677L209.036 532.922L194.266 508.741L166.704 515.316L185.137 493.796L170.367 469.615L196.53 480.496L214.963 458.977Z" fill="url(#paint2_linear_203_162)"/>
<path d="M982.345 52.6165L978.868 64.5267L989.121 71.5135L976.72 71.8876L973.243 83.7977L969.055 72.1187L956.654 72.4928L966.467 64.9007L962.279 53.2218L972.532 60.2086L982.345 52.6165Z" fill="url(#paint3_linear_203_162)"/>
<path d="M224.345 37.6165L220.868 49.5267L231.121 56.5135L218.72 56.8876L215.243 68.7977L211.055 57.1187L198.654 57.4928L208.467 49.9007L204.279 38.2218L214.532 45.2086L224.345 37.6165Z" fill="url(#paint4_linear_203_162)"/>
<path d="M172.345 9.61653L168.868 21.5267L179.121 28.5135L166.72 28.8876L163.243 40.7977L159.055 29.1187L146.654 29.4928L156.467 21.9007L152.279 10.2218L162.532 17.2086L172.345 9.61653Z" fill="url(#paint5_linear_203_162)"/>
<path d="M154.345 97.6165L150.868 109.527L161.121 116.513L148.72 116.888L145.243 128.798L141.055 117.119L128.654 117.493L138.467 109.901L134.279 98.2218L144.532 105.209L154.345 97.6165Z" fill="url(#paint6_linear_203_162)"/>
<path d="M1070.06 488.767L1065.24 477.335L1052.88 478.385L1062.26 470.269L1057.44 458.836L1068.06 465.252L1077.45 457.136L1074.63 469.218L1085.24 475.635L1072.88 476.685L1070.06 488.767Z" fill="url(#paint7_linear_203_162)"/>
<path d="M1043.91 540.477L1039.09 529.045L1026.73 530.095L1036.11 521.979L1031.29 510.546L1041.91 516.962L1051.29 508.846L1048.47 520.928L1059.09 527.344L1046.73 528.395L1043.91 540.477Z" fill="url(#paint8_linear_203_162)"/>
<path d="M1159.91 430.477L1155.09 419.045L1142.73 420.095L1152.11 411.979L1147.29 400.546L1157.91 406.962L1167.29 398.846L1164.47 410.928L1175.09 417.344L1162.73 418.395L1159.91 430.477Z" fill="url(#paint9_linear_203_162)"/>
<path d="M1043.91 358.477L1039.09 347.045L1026.73 348.095L1036.11 339.979L1031.29 328.546L1041.91 334.962L1051.29 326.846L1048.47 338.928L1059.09 345.344L1046.73 346.395L1043.91 358.477Z" fill="url(#paint10_linear_203_162)"/>
<path d="M1130.91 155.477L1126.09 144.045L1113.73 145.095L1123.11 136.979L1118.29 125.546L1128.91 131.962L1138.29 123.846L1135.47 135.928L1146.09 142.344L1133.73 143.395L1130.91 155.477Z" fill="url(#paint11_linear_203_162)"/>
<path d="M140.908 384.477L136.088 373.045L123.726 374.095L133.11 365.979L128.29 354.546L138.909 360.962L148.293 352.846L145.472 364.928L156.092 371.344L143.729 372.395L140.908 384.477Z" fill="url(#paint12_linear_203_162)"/>
<path d="M148.908 510.477L144.088 499.045L131.726 500.095L141.11 491.979L136.29 480.546L146.909 486.962L156.293 478.846L153.472 490.928L164.092 497.344L151.729 498.395L148.908 510.477Z" fill="url(#paint13_linear_203_162)"/>
<path d="M67.908 208.477L63.0885 197.045L50.7259 198.095L60.1098 189.979L55.2903 178.546L65.9094 184.962L75.2934 176.846L72.4724 188.928L83.0916 195.344L70.729 196.395L67.908 208.477Z" fill="url(#paint14_linear_203_162)"/>
<path d="M999.48 58.0214L1022.46 74.6052L1045.33 57.8793L1036.65 84.8546L1059.63 101.438L1031.3 101.526L1022.62 128.502L1013.78 101.581L985.448 101.668L1008.32 84.9425L999.48 58.0214Z" fill="url(#paint15_linear_203_162)"/>
<path d="M1053.36 495.389L1025.07 497.024L1017.88 524.433L1007.59 498.034L979.298 499.669L1001.22 481.719L990.926 455.321L1014.77 470.626L1036.7 452.676L1029.51 480.084L1053.36 495.389Z" fill="url(#paint16_linear_203_162)"/>
<path d="M205.341 76.5075L177.053 78.1425L169.866 105.551L159.57 79.153L131.282 80.788L153.207 62.838L142.91 36.4398L166.757 51.7443L188.681 33.7943L181.494 61.203L205.341 76.5075Z" fill="url(#paint17_linear_203_162)"/>
<defs>
<linearGradient id="paint0_linear_203_162" x1="1215.9" y1="242.201" x2="1135.04" y2="214.351" gradientUnits="userSpaceOnUse">
<stop stop-color="#FFED47"/>
<stop offset="1" stop-color="#FDB703"/>
</linearGradient>
<linearGradient id="paint1_linear_203_162" x1="110.9" y1="277.201" x2="30.0407" y2="249.351" gradientUnits="userSpaceOnUse">
<stop stop-color="#FFED47"/>
<stop offset="1" stop-color="#FDB703"/>
</linearGradient>
<linearGradient id="paint2_linear_203_162" x1="259.9" y1="466.201" x2="179.041" y2="438.351" gradientUnits="userSpaceOnUse">
<stop stop-color="#FFED47"/>
<stop offset="1" stop-color="#FDB703"/>
</linearGradient>
<linearGradient id="paint3_linear_203_162" x1="1000.97" y1="59.7013" x2="968.772" y2="40.5856" gradientUnits="userSpaceOnUse">
<stop stop-color="#FFED47"/>
<stop offset="1" stop-color="#FDB703"/>
</linearGradient>
<linearGradient id="paint4_linear_203_162" x1="242.973" y1="44.7013" x2="210.772" y2="25.5856" gradientUnits="userSpaceOnUse">
<stop stop-color="#FFED47"/>
<stop offset="1" stop-color="#FDB703"/>
</linearGradient>
<linearGradient id="paint5_linear_203_162" x1="190.973" y1="16.7013" x2="158.772" y2="-2.4144" gradientUnits="userSpaceOnUse">
<stop stop-color="#FFED47"/>
<stop offset="1" stop-color="#FDB703"/>
</linearGradient>
<linearGradient id="paint6_linear_203_162" x1="172.973" y1="104.701" x2="140.772" y2="85.5856" gradientUnits="userSpaceOnUse">
<stop stop-color="#FFED47"/>
<stop offset="1" stop-color="#FDB703"/>
</linearGradient>
<linearGradient id="paint7_linear_203_162" x1="1051.14" y1="495.027" x2="1088.18" y2="489.534" gradientUnits="userSpaceOnUse">
<stop stop-color="#FFED47"/>
<stop offset="1" stop-color="#FDB703"/>
</linearGradient>
<linearGradient id="paint8_linear_203_162" x1="1024.99" y1="546.737" x2="1062.03" y2="541.244" gradientUnits="userSpaceOnUse">
<stop stop-color="#FFED47"/>
<stop offset="1" stop-color="#FDB703"/>
</linearGradient>
<linearGradient id="paint9_linear_203_162" x1="1140.99" y1="436.737" x2="1178.03" y2="431.244" gradientUnits="userSpaceOnUse">
<stop stop-color="#FFED47"/>
<stop offset="1" stop-color="#FDB703"/>
</linearGradient>
<linearGradient id="paint10_linear_203_162" x1="1024.99" y1="364.737" x2="1062.03" y2="359.244" gradientUnits="userSpaceOnUse">
<stop stop-color="#FFED47"/>
<stop offset="1" stop-color="#FDB703"/>
</linearGradient>
<linearGradient id="paint11_linear_203_162" x1="1111.99" y1="161.737" x2="1149.03" y2="156.244" gradientUnits="userSpaceOnUse">
<stop stop-color="#FFED47"/>
<stop offset="1" stop-color="#FDB703"/>
</linearGradient>
<linearGradient id="paint12_linear_203_162" x1="121.987" y1="390.737" x2="159.029" y2="385.244" gradientUnits="userSpaceOnUse">
<stop stop-color="#FFED47"/>
<stop offset="1" stop-color="#FDB703"/>
</linearGradient>
<linearGradient id="paint13_linear_203_162" x1="129.987" y1="516.737" x2="167.029" y2="511.244" gradientUnits="userSpaceOnUse">
<stop stop-color="#FFED47"/>
<stop offset="1" stop-color="#FDB703"/>
</linearGradient>
<linearGradient id="paint14_linear_203_162" x1="48.9871" y1="214.737" x2="86.0295" y2="209.244" gradientUnits="userSpaceOnUse">
<stop stop-color="#FFED47"/>
<stop offset="1" stop-color="#FDB703"/>
</linearGradient>
<linearGradient id="paint15_linear_203_162" x1="1028.96" y1="23.3466" x2="963.216" y2="78.0382" gradientUnits="userSpaceOnUse">
<stop stop-color="#FFED47"/>
<stop offset="1" stop-color="#FDB703"/>
</linearGradient>
<linearGradient id="paint16_linear_203_162" x1="1052.37" y1="540.893" x2="1068.86" y2="456.975" gradientUnits="userSpaceOnUse">
<stop stop-color="#FFED47"/>
<stop offset="1" stop-color="#FDB703"/>
</linearGradient>
<linearGradient id="paint17_linear_203_162" x1="204.353" y1="122.011" x2="220.84" y2="38.094" gradientUnits="userSpaceOnUse">
<stop stop-color="#FFED47"/>
<stop offset="1" stop-color="#FDB703"/>
</linearGradient>
</defs>
</svg>
