<svg width="304" height="304" viewBox="0 0 304 304" fill="none" xmlns="http://www.w3.org/2000/svg">
<mask id="mask0_109_4113" style="mask-type:alpha" maskUnits="userSpaceOnUse" x="0" y="0" width="304" height="304">
<circle cx="152" cy="152" r="152" fill="#C4C4C4"/>
</mask>
<g mask="url(#mask0_109_4113)">
<path d="M152.248 -0.120667C68.258 -0.120667 0.158203 67.9791 0.158203 151.969C0.158203 235.959 68.258 304.058 152.248 304.058C236.238 304.058 304.337 235.959 304.337 151.969C304.337 67.9791 236.238 -0.120667 152.248 -0.120667ZM152.248 278.332C82.3824 278.332 25.7587 221.708 25.7587 151.843C25.7587 81.9774 82.3824 25.3537 152.248 25.3537C222.113 25.3537 278.737 81.9774 278.737 151.843C278.737 221.708 222.113 278.332 152.248 278.332Z" fill="url(#paint0_linear_109_4113)"/>
<path d="M151.937 24.9999C81.7541 24.9999 25 81.9091 25 152C25 222.217 81.8808 279 151.937 279C222.119 279 279 222.091 279 152C279 81.9091 222.119 24.9999 151.937 24.9999ZM151.937 271.015C86.3147 271.015 33.1077 217.781 33.1077 152.127C33.1077 86.472 86.3147 33.2385 151.937 33.2385C217.559 33.2385 270.766 86.472 270.766 152.127C270.892 217.781 217.685 271.015 151.937 271.015Z" fill="url(#paint1_linear_109_4113)"/>
</g>
<circle cx="152.5" cy="151.5" r="120.5" fill="url(#paint2_radial_109_4113)"/>
<path d="M105.822 176L116.027 144.54L126.232 176H134.357L150.217 127.965H139.687L130.132 160.27L119.017 127.965H112.907L101.987 160.27L92.3023 127.965H81.7723L97.6973 176H105.822ZM155.965 176H165.65V127.965H155.965V176ZM207.801 157.67L182.451 127.965H176.341V176H185.831V146.555L210.726 176H217.291V127.965H207.801V157.67Z" fill="white"/>
<defs>
<linearGradient id="paint0_linear_109_4113" x1="271.708" y1="32.5285" x2="52.4609" y2="251.776" gradientUnits="userSpaceOnUse">
<stop offset="0.00388558" stop-color="#FFFF55"/>
<stop offset="1" stop-color="#C57600"/>
</linearGradient>
<linearGradient id="paint1_linear_109_4113" x1="151.99" y1="280.346" x2="151.99" y2="29.0304" gradientUnits="userSpaceOnUse">
<stop offset="0.00388558" stop-color="#FFFF55"/>
<stop offset="1" stop-color="#C57600"/>
</linearGradient>
<radialGradient id="paint2_radial_109_4113" cx="0" cy="0" r="1" gradientUnits="userSpaceOnUse" gradientTransform="translate(152.489 151.489) scale(120.489)">
<stop stop-color="#FEDD33"/>
<stop offset="0.9999" stop-color="#E4B12D"/>
<stop offset="1" stop-color="#E4B12D"/>
</radialGradient>
</defs>
</svg>
