<svg width="304" height="304" viewBox="0 0 304 304" fill="none" xmlns="http://www.w3.org/2000/svg">
<ellipse cx="151.5" cy="152.5" rx="119.5" ry="118.5" fill="url(#paint0_radial_109_4115)"/>
<g clip-path="url(#clip0_109_4115)">
<path d="M152.063 0C68.0879 0 0 68.0879 0 152.063C0 236.038 68.0879 304.126 152.063 304.126C236.038 304.126 304.126 236.038 304.126 152.063C304 68.0879 236.038 0 152.063 0ZM152.063 278.404C82.2099 278.404 25.596 221.79 25.596 151.937C25.596 82.0838 82.2099 25.4699 152.063 25.4699C221.916 25.4699 278.53 82.0838 278.53 151.937C278.404 221.79 221.79 278.404 152.063 278.404Z" fill="url(#paint1_linear_109_4115)"/>
<path d="M152.063 25.596C82.2099 25.596 25.7222 82.2099 25.7222 151.937C25.7222 221.79 82.336 278.278 152.063 278.278C221.916 278.278 278.53 221.664 278.53 151.937C278.404 82.2099 221.79 25.596 152.063 25.596ZM152.063 270.334C86.7491 270.334 33.7918 217.377 33.7918 152.063C33.7918 86.7491 86.7491 33.7918 152.063 33.7918C217.377 33.7918 270.334 86.7491 270.334 152.063C270.334 217.377 217.377 270.334 152.063 270.334Z" fill="url(#paint2_linear_109_4115)"/>
</g>
<path d="M105.39 180V170.77H81.015V131.965H71.33V180H105.39ZM131.644 180.78C138.729 180.78 144.644 178.375 149.454 173.565C154.329 168.755 156.734 162.905 156.734 156.015C156.734 149.125 154.329 143.275 149.454 138.4C144.644 133.525 138.729 131.12 131.709 131.12C124.689 131.12 118.774 133.525 113.899 138.4C109.089 143.275 106.684 149.19 106.684 156.145C106.684 163.1 109.089 168.95 113.834 173.695C118.579 178.44 124.559 180.78 131.644 180.78ZM146.724 156.015C146.789 160.37 145.359 164.01 142.434 166.935C139.509 169.86 135.934 171.29 131.709 171.29C127.484 171.29 123.909 169.86 120.984 166.935C118.124 164.01 116.694 160.37 116.694 156.015C116.694 151.66 118.124 147.955 121.049 145.03C123.974 142.105 127.484 140.61 131.709 140.61C135.934 140.61 139.444 142.105 142.369 145.03C145.294 147.955 146.724 151.595 146.724 156.015ZM178.238 180.78C183.503 180.78 187.728 179.415 190.978 176.685C194.228 173.955 195.853 170.445 195.853 166.155C195.853 160.825 193.123 156.86 187.663 154.195C186.428 153.61 184.478 152.765 181.813 151.66L177.068 149.58C174.468 148.28 173.168 146.72 173.168 144.835C173.168 142.04 175.508 140.22 179.343 140.22C182.918 140.22 187.208 141.845 189.873 144.705L195.008 137.685C190.718 133.33 185.453 131.185 179.213 131.185C174.403 131.185 170.438 132.55 167.383 135.215C164.328 137.88 162.833 141.195 162.833 145.225C162.833 150.295 165.368 154.26 170.438 157.185C171.738 157.9 173.623 158.81 176.093 159.785C178.628 160.76 180.188 161.345 180.838 161.67C183.763 163.035 185.193 164.725 185.193 166.675C185.193 169.73 182.268 171.81 178.303 171.81C173.363 171.81 168.683 169.47 165.563 165.115L160.038 171.81C164.003 177.595 170.763 180.78 178.238 180.78ZM217.657 180.78C222.922 180.78 227.147 179.415 230.397 176.685C233.647 173.955 235.272 170.445 235.272 166.155C235.272 160.825 232.542 156.86 227.082 154.195C225.847 153.61 223.897 152.765 221.232 151.66L216.487 149.58C213.887 148.28 212.587 146.72 212.587 144.835C212.587 142.04 214.927 140.22 218.762 140.22C222.337 140.22 226.627 141.845 229.292 144.705L234.427 137.685C230.137 133.33 224.872 131.185 218.632 131.185C213.822 131.185 209.857 132.55 206.802 135.215C203.747 137.88 202.252 141.195 202.252 145.225C202.252 150.295 204.787 154.26 209.857 157.185C211.157 157.9 213.042 158.81 215.512 159.785C218.047 160.76 219.607 161.345 220.257 161.67C223.182 163.035 224.612 164.725 224.612 166.675C224.612 169.73 221.687 171.81 217.722 171.81C212.782 171.81 208.102 169.47 204.982 165.115L199.457 171.81C203.422 177.595 210.182 180.78 217.657 180.78Z" fill="white"/>
<defs>
<radialGradient id="paint0_radial_109_4115" cx="0" cy="0" r="1" gradientUnits="userSpaceOnUse" gradientTransform="translate(151.489 152.489) scale(119.489 118.489)">
<stop stop-color="#4E50FC"/>
<stop offset="1" stop-color="#2D2AAB"/>
</radialGradient>
<linearGradient id="paint1_linear_109_4115" x1="271.405" y1="32.6228" x2="52.1962" y2="251.832" gradientUnits="userSpaceOnUse">
<stop offset="0.00388558" stop-color="#7381FF"/>
<stop offset="0.2891" stop-color="#4654F0"/>
<stop offset="0.6463" stop-color="#3F4AE9"/>
<stop offset="1" stop-color="#1E1170"/>
</linearGradient>
<linearGradient id="paint2_linear_109_4115" x1="152.019" y1="279.597" x2="152.019" y2="29.5849" gradientUnits="userSpaceOnUse">
<stop offset="0.00388558" stop-color="#7381FF"/>
<stop offset="0.3391" stop-color="#3F4AE9"/>
<stop offset="1" stop-color="#1F1473"/>
</linearGradient>
<clipPath id="clip0_109_4115">
<rect width="304" height="304" fill="white"/>
</clipPath>
</defs>
</svg>
